<?xml version="1.0" encoding="UTF-8"?>
<svg xmlns="http://www.w3.org/2000/svg" width="50" height="50" viewBox="0 0 50 50" fill="none">
  <circle cx="25" cy="25" r="25" fill="#283377"></circle>
  <g clip-path="url(#clip0_3127_9829)">
    <path d="M33.7264 18.2182C34.9111 18.2182 35.9605 18.2485 37.0078 18.2074C37.7504 18.1792 38.0021 18.4996 38 19.2289C37.9831 24.025 38 28.821 37.9852 33.6171C37.9852 35.1191 37.1389 35.9978 35.6876 35.9978C28.2123 36.0107 20.7419 36.0107 13.2764 35.9978C11.8568 35.9978 11.0254 35.1602 11.019 33.7058C10.9958 27.8298 11.019 21.9516 11 16.0734C11 15.2813 11.2962 15.0086 12.0705 15.0108C18.9422 15.0324 25.8138 15.0324 32.6855 15.0108C33.4788 15.0108 33.7666 15.3267 33.7327 16.0929C33.7031 16.7595 33.7264 17.4347 33.7264 18.2182ZM12.1467 16.1816V17.2638C12.1467 22.5662 12.1467 27.8687 12.1467 33.1712C12.1467 34.6862 12.3075 34.8464 13.7842 34.8485C19.7786 34.8485 25.7729 34.8485 31.7673 34.8485C32.0656 34.8485 32.366 34.8052 32.567 34.7879V16.1751L12.1467 16.1816ZM33.8554 19.3913C33.8025 19.5103 33.7496 19.5709 33.7496 19.6337C33.7391 24.3518 33.7243 29.0699 33.7391 33.788C33.7391 34.0715 33.9379 34.5715 34.1051 34.5996C34.8117 34.7187 35.586 34.8572 36.244 34.6624C36.5571 34.5693 36.8279 33.7426 36.8322 33.2448C36.8787 28.9162 36.8618 24.5877 36.8575 20.2764C36.8575 19.9972 36.8152 19.7159 36.7877 19.3913H33.8554Z" fill="white"></path>
    <path d="M17.8683 29.371C16.7428 29.371 15.6173 29.3472 14.4833 29.371C13.7936 29.3905 13.4466 29.1806 13.4593 28.3949C13.4932 26.38 13.4868 24.3629 13.4593 22.3479C13.4593 21.6337 13.7724 21.3956 14.4198 21.4C16.747 21.4129 19.0637 21.4173 21.3846 21.4C22.1145 21.4 22.3662 21.7138 22.3535 22.4475C22.3197 24.4271 22.3197 26.4067 22.3535 28.3863C22.3683 29.1632 22.0446 29.3927 21.3422 29.3732C20.1913 29.3472 19.0298 29.371 17.8683 29.371ZM21.1984 22.6228H14.6399V28.185H21.1984V22.6228Z" fill="white"></path>
    <path d="M29.9215 18.1057C31.0661 18.0278 30.9793 19.2528 30.1796 19.2528C28.8468 19.3242 27.5054 19.2809 26.1599 19.2809H14.8623C14.6148 19.2809 14.3334 19.348 14.1324 19.2484C14.0387 19.1996 13.953 19.136 13.8785 19.0601C13.8249 19.0067 13.783 18.9421 13.7555 18.8709C13.7281 18.7996 13.7158 18.7232 13.7194 18.6466C13.723 18.5701 13.7424 18.4952 13.7764 18.427C13.8104 18.3587 13.8582 18.2986 13.9166 18.2507C13.9712 18.2066 14.0309 18.1695 14.0943 18.1403C14.3059 18.0494 14.5788 18.1078 14.8242 18.1078H29.9215" fill="white"></path>
    <path d="M27.3435 32.8034C26.3936 32.8034 25.4394 32.7861 24.4916 32.8034C23.8908 32.8185 23.5628 32.6216 23.5819 31.9377C23.6094 30.9659 23.5353 29.9898 23.6305 29.0246C23.658 28.7389 24.1044 28.28 24.371 28.2714C26.4105 28.2086 28.4521 28.2108 30.4937 28.2714C30.7476 28.2714 31.1855 28.7042 31.2067 28.9596C31.2935 30.0002 31.2935 31.0464 31.2067 32.087C31.1834 32.3467 30.7011 32.7363 30.4049 32.7644C29.3894 32.8575 28.3633 32.8055 27.3435 32.8034ZM30.1256 29.4379H24.7391V31.6022H30.1256V29.4379Z" fill="white"></path>
    <path d="M27.3643 25.9904C26.3805 25.9904 25.3904 26.038 24.4024 25.9622C24.3201 25.9516 24.2416 25.9203 24.1739 25.8713C24.0889 25.814 24.0206 25.7342 23.9762 25.6404C23.9319 25.5465 23.9132 25.4422 23.9221 25.3384C23.931 25.2346 23.9671 25.1352 24.0267 25.0507C24.0863 24.9662 24.1672 24.8998 24.2606 24.8584C24.3028 24.8427 24.347 24.8339 24.3918 24.8324C26.3975 24.7892 28.4116 24.7848 30.4087 24.8324C30.4899 24.8391 30.568 24.8675 30.6351 24.9147C30.7208 24.9715 30.7899 25.0511 30.8349 25.1449C30.88 25.2388 30.8993 25.3433 30.8908 25.4475C30.8823 25.5516 30.8464 25.6515 30.7868 25.7364C30.7273 25.8213 30.6463 25.8882 30.5526 25.9298C30.5087 25.9479 30.4623 25.9589 30.4151 25.9622C29.408 26.0358 28.3904 25.9904 27.3643 25.9904Z" fill="white"></path>
    <path d="M17.9994 31.6908C19.1588 31.6908 20.3267 31.6497 21.4712 31.719C21.5525 31.7268 21.6305 31.7558 21.6976 31.8034C21.7796 31.857 21.8455 31.9329 21.8877 32.0226C21.93 32.1123 21.947 32.2123 21.9369 32.3113C21.9268 32.4104 21.89 32.5046 21.8305 32.5834C21.7711 32.6623 21.6914 32.7227 21.6003 32.7578C21.5551 32.7727 21.5081 32.7815 21.4606 32.7838C19.077 32.8199 16.692 32.8199 14.3055 32.7838C14.2601 32.7832 14.2151 32.7752 14.1722 32.76C14.0815 32.7234 14.0026 32.6618 13.9442 32.5819C13.8859 32.502 13.8504 32.4071 13.8419 32.3078C13.8333 32.2084 13.852 32.1086 13.8957 32.0195C13.9395 31.9304 14.0067 31.8556 14.0897 31.8034C14.1577 31.7564 14.2364 31.7281 14.3182 31.7211C15.5432 31.6627 16.7724 31.6908 17.9994 31.6908Z" fill="white"></path>
    <path d="M27.4202 22.5577C26.4385 22.5577 25.4526 22.601 24.4773 22.5317C24.4228 22.5272 24.3692 22.5141 24.3187 22.4928C24.2197 22.4508 24.1351 22.3798 24.0756 22.2887C24.0161 22.1976 23.9844 22.0905 23.9844 21.9809C23.9844 21.8713 24.0161 21.7642 24.0756 21.6731C24.1351 21.582 24.2197 21.511 24.3187 21.4691C24.3635 21.4495 24.4117 21.4392 24.4604 21.4388C26.4237 21.3883 28.3871 21.3883 30.3504 21.4388C30.4009 21.4413 30.4509 21.4515 30.4985 21.4691C30.5988 21.5089 30.6852 21.5784 30.7468 21.6688C30.8083 21.7591 30.8421 21.8661 30.8439 21.9762C30.8457 22.0862 30.8155 22.1944 30.7569 22.2868C30.6984 22.3792 30.6144 22.4516 30.5154 22.4949C30.4677 22.516 30.417 22.5291 30.3652 22.5339C29.3878 22.6031 28.4019 22.5577 27.4202 22.5577Z" fill="white"></path>
  </g>
  <defs>
    <clipPath id="clip0_3127_9829">
      <rect width="27" height="21" fill="white" transform="translate(11 15)"></rect>
    </clipPath>
  </defs>
</svg>
