<?xml version="1.0" encoding="UTF-8"?>
<svg xmlns="http://www.w3.org/2000/svg" width="48" height="48" viewBox="0 0 48 48" fill="none">
  <circle cx="24" cy="24" r="24" fill="#283377"></circle>
  <g clip-path="url(#clip0_3127_9828)">
    <path d="M9 25.5193C9.03547 25.3911 9.06133 25.2595 9.10773 25.135C9.30099 24.6163 9.66597 24.247 10.1727 24.0095C10.2333 23.9811 10.2504 23.9506 10.2502 23.8889C10.2485 22.8287 10.2485 21.7685 10.2502 20.7082C10.2512 20.4337 10.3594 20.2091 10.6246 20.0828C10.7965 20.0011 10.9792 20.0034 11.1572 20.0601C11.663 20.2215 12.1671 20.3883 12.6718 20.553C13.1478 20.7083 13.6241 20.8627 14.0995 21.0199C14.1517 21.0374 14.1824 21.0325 14.2169 20.9876C14.5409 20.5723 14.8985 20.1829 15.2862 19.823C16.373 18.8122 17.6213 18.0556 19.042 17.573C19.1567 17.534 19.2716 17.4958 19.388 17.4624C19.4141 17.4548 19.4566 17.4582 19.4753 17.4743C19.7801 17.7352 20.1044 17.9734 20.4457 18.187C20.4474 18.1881 20.4474 18.1918 20.4507 18.2022C18.3404 18.6865 16.5966 19.7486 15.1966 21.3759C15.2599 21.3982 15.3126 21.4179 15.3663 21.4354L19.2413 22.7022C20.235 23.0272 21.2286 23.3522 22.222 23.6771C22.5515 23.7843 22.8777 23.9097 23.2155 23.9816C23.8575 24.1182 24.4863 24.0507 25.1078 23.8285C26.5626 23.3088 28.025 22.8076 29.4835 22.2987L32.607 21.2088C32.6145 21.2061 32.6216 21.2022 32.6402 21.194C31.9795 20.4479 31.202 19.8082 30.3363 19.2986C29.4681 18.7881 28.5376 18.4268 27.5327 18.2007C27.6476 18.1247 27.7508 18.0635 27.8461 17.9921C28.0687 17.8248 28.2867 17.6516 28.5091 17.484C28.5234 17.4738 28.5397 17.4666 28.557 17.4628C28.5743 17.459 28.5922 17.4587 28.6096 17.4619C29.9795 17.8746 31.2454 18.5625 32.3256 19.4812C32.7922 19.8763 33.2221 20.3108 33.6103 20.7795C33.6486 20.8255 33.6794 20.8367 33.7401 20.8154C34.7597 20.4574 35.7801 20.1013 36.8011 19.7473C37.0086 19.6751 37.2179 19.6592 37.418 19.767C37.6618 19.8984 37.7494 20.1201 37.7504 20.3757C37.7535 21.5436 37.7535 22.7115 37.7504 23.8794C37.7504 23.9525 37.7746 23.9835 37.8413 24.0163C38.452 24.3163 38.8473 24.7813 38.9751 25.4462C38.9809 25.4765 38.9917 25.5059 39.001 25.5356V27.4247C38.9947 27.4331 38.9898 27.4424 38.9864 27.4523C38.8747 28.153 38.4726 28.6421 37.8298 28.9538C37.7655 28.985 37.7509 29.0184 37.7511 29.082C37.7527 30.4109 37.753 31.7399 37.7523 33.0689C37.7523 33.6033 37.3276 34.1668 36.8032 34.3283C36.635 34.38 36.4659 34.4292 36.2972 34.4796C35.0767 34.8442 33.8563 35.2088 32.6359 35.5735C31.4787 35.9193 30.3218 36.2654 29.165 36.6116C27.9452 36.9764 26.7252 37.3406 25.5051 37.7042C25.1942 37.7964 24.8796 37.8771 24.5657 37.9593C24.4845 37.9806 24.3999 37.9873 24.3159 38.0005H23.6032C23.5859 37.9942 23.5683 37.9888 23.5503 37.9844C23.3665 37.9503 23.1764 37.9359 22.9994 37.8804C21.8226 37.5161 20.6476 37.1435 19.4722 36.7737C18.102 36.3432 16.7322 35.9123 15.3628 35.4811C14.8013 35.3043 14.2399 35.1271 13.6787 34.9496C12.8392 34.6853 11.9978 34.426 11.1603 34.1554C10.659 33.9939 10.2501 33.4204 10.2501 32.9071C10.2501 31.656 10.2479 30.4045 10.2534 29.154C10.2534 29.0321 10.2171 28.9755 10.1054 28.919C9.52889 28.6274 9.16144 28.1735 9.0305 27.5466C9.02304 27.5106 9.01094 27.4754 9.001 27.4398L9 25.5193ZM24.5069 36.9696C24.5383 36.962 24.5594 36.958 24.5799 36.9518L25.9878 36.532L30.1543 35.2875C31.3749 34.9228 32.5955 34.5579 33.8161 34.1927C34.6966 33.9293 35.577 33.666 36.4573 33.403C36.6177 33.3545 36.7429 33.1884 36.7429 33.0274V29.1624C36.6668 29.1532 36.6015 29.1463 36.5365 29.1372C35.5555 28.9968 34.7276 28.2126 34.7423 27.1503C34.7488 26.6821 34.7423 26.2139 34.7441 25.7457C34.7436 25.6651 34.7496 25.5847 34.7622 25.5051C34.8864 24.7814 35.3073 24.2825 35.9859 23.9811C36.2238 23.8753 36.4769 23.8266 36.7384 23.8035V20.8157C36.7061 20.8254 36.6804 20.8318 36.6555 20.8407C36.3207 20.9573 35.9859 21.0741 35.6509 21.1912C34.4878 21.5967 33.3248 22.0022 32.1617 22.4077C31.0404 22.7989 29.9189 23.1904 28.797 23.582C27.808 23.927 26.82 24.2744 25.8293 24.6153C25.4788 24.7357 25.1224 24.84 24.7672 24.9471C24.6844 24.9721 24.5952 24.9779 24.5064 24.9931L24.5069 36.9696ZM11.2551 29.1592C11.2533 29.1847 11.2513 29.2007 11.2513 29.2167C11.2513 30.4301 11.2513 31.6435 11.2513 32.8569C11.2513 33.0236 11.3889 33.1978 11.5553 33.2502L15.2004 34.3974C16.3208 34.75 17.4413 35.1025 18.5619 35.4548C20.0836 35.934 21.6053 36.4134 23.1269 36.8929C23.2439 36.9296 23.363 36.9589 23.496 36.9959V25.1389C23.495 25.1201 23.495 25.1012 23.496 25.0824C23.5011 25.0322 23.4807 25.0165 23.4275 25.0078C23.1943 24.9692 22.9548 24.9455 22.7314 24.8756C21.9489 24.6314 21.1719 24.3704 20.3927 24.1156L17.4207 23.1426C16.0901 22.7072 14.7595 22.2718 13.4289 21.8363C12.7991 21.63 12.1688 21.4244 11.5382 21.2195C11.4454 21.1891 11.3529 21.1577 11.2578 21.1258V23.7951C11.4093 23.8224 11.5548 23.8398 11.6957 23.8758C12.5576 24.0922 13.2675 24.8218 13.2569 25.8236C13.252 26.2783 13.2569 26.733 13.2552 27.1876C13.256 27.2736 13.2501 27.3595 13.2375 27.4445C13.1161 28.1893 12.6827 28.6968 11.9819 28.9971C11.7529 29.0946 11.5101 29.141 11.2551 29.1592ZM12.2463 26.4876C12.2463 26.2428 12.2496 25.998 12.2455 25.7532C12.2408 25.4773 12.126 25.2466 11.913 25.068C11.6064 24.8111 11.2488 24.7278 10.8554 24.8115C10.3783 24.9127 9.98735 25.2892 9.99779 25.8311C10.0064 26.2801 9.99862 26.7294 9.99978 27.1784C9.99763 27.3597 10.0508 27.5375 10.1524 27.6893C10.4271 28.0965 10.9575 28.276 11.4658 28.136C11.889 28.0195 12.2705 27.6517 12.248 27.1329C12.2387 26.9182 12.2465 26.7026 12.2463 26.4876ZM35.7514 26.4821V27.2086C35.749 27.3958 35.8109 27.5784 35.9272 27.7274C36.2214 28.1046 36.6207 28.237 37.0894 28.1633C37.5464 28.092 38.0073 27.7414 37.9994 27.1282C37.9938 26.69 37.9994 26.2517 37.9977 25.8133C37.9977 25.6247 37.9583 25.445 37.8501 25.2845C37.5439 24.8299 36.9293 24.6574 36.4013 24.8723C36.0265 25.0249 35.7268 25.383 35.7496 25.829C35.7612 26.046 35.7514 26.2641 35.7514 26.4821Z" fill="white"></path>
    <path d="M24.4324 7L24.7795 7.04844C25.9255 7.20473 26.9337 7.65418 27.8042 8.39678C28.3752 8.88316 28.8402 9.47609 29.1719 10.1405C29.4717 10.7351 29.6585 11.3776 29.7235 12.037C29.8368 13.1703 29.6206 14.24 29.0748 15.246C28.8319 15.6902 28.5275 16.0998 28.1702 16.4634C27.704 16.9424 27.1544 17.3371 26.5469 17.6294C25.8958 17.9454 25.188 18.1353 24.4626 18.1884C23.379 18.2691 22.3492 18.0731 21.3797 17.5923C20.9044 17.356 20.4655 17.0558 20.076 16.7004C19.5632 16.2363 19.1421 15.6845 18.8337 15.0724C18.5354 14.4831 18.3475 13.8465 18.2791 13.1927C18.1911 12.3969 18.2795 11.592 18.5385 10.8324C18.7747 10.1331 19.1523 9.48705 19.649 8.93233C20.152 8.36491 20.7672 7.90195 21.4578 7.57108C22.1049 7.25971 22.807 7.07105 23.5265 7.01518C23.5414 7.01207 23.5559 7.00696 23.5694 7H24.4324ZM23.9977 17.2219C26.5817 17.2361 28.7622 15.1654 28.7465 12.5719C28.7312 10.0701 26.6455 7.96294 23.9707 7.97828C21.3525 7.99329 19.3109 10.0483 19.2555 12.4931C19.1949 15.1299 21.3993 17.2332 23.9969 17.2219H23.9977Z" fill="white"></path>
  </g>
  <defs>
    <clipPath id="clip0_3127_9828">
      <rect width="30" height="31" fill="white" transform="translate(9 7)"></rect>
    </clipPath>
  </defs>
</svg>
